<svg xmlns="http://www.w3.org/2000/svg" xmlns:xlink="http://www.w3.org/1999/xlink" width="500" zoomAndPan="magnify" viewBox="0 0 375 374.999991" height="500" preserveAspectRatio="xMidYMid meet" version="1.0"><defs><clipPath id="c8d370ee8b"><path d="M 49.605469 52.65625 L 325.605469 52.65625 L 325.605469 328.65625 L 49.605469 328.65625 Z M 49.605469 52.65625 " clip-rule="nonzero"/></clipPath><clipPath id="81fe34e6d7"><path d="M 188 12.238281 L 296 12.238281 L 296 207 L 188 207 Z M 188 12.238281 " clip-rule="nonzero"/></clipPath><clipPath id="7a6e3e8d49"><path d="M 2.738281 12.238281 L 374.738281 12.238281 L 374.738281 337.738281 L 2.738281 337.738281 Z M 2.738281 12.238281 " clip-rule="nonzero"/></clipPath><clipPath id="9fc093138f"><path d="M 246 222 L 374.738281 222 L 374.738281 337.738281 L 246 337.738281 Z M 246 222 " clip-rule="nonzero"/></clipPath></defs><g clip-path="url(#c8d370ee8b)"><path fill="#d1f811" d="M 187.496094 52.65625 C 263.648438 52.65625 325.382812 114.390625 325.382812 190.542969 C 325.382812 266.699219 263.648438 328.433594 187.496094 328.433594 C 111.339844 328.433594 49.605469 266.699219 49.605469 190.542969 C 49.605469 114.390625 111.339844 52.65625 187.496094 52.65625 Z M 187.496094 52.65625 " fill-opacity="1" fill-rule="evenodd"/></g><g clip-path="url(#81fe34e6d7)"><path fill="#078c71" d="M 276.839844 206.742188 L 295.523438 198.726562 L 188.855469 12.226562 L 188.855469 52.703125 L 276.839844 206.742188 " fill-opacity="1" fill-rule="nonzero"/></g><path fill="#078c71" d="M 229.492188 227.050781 L 248.222656 219.019531 L 188.855469 116.191406 L 188.855469 156.664062 L 229.492188 227.050781 " fill-opacity="1" fill-rule="nonzero"/><g clip-path="url(#7a6e3e8d49)"><path fill="#003c30" d="M 113.660156 286.90625 L 188.855469 156.664062 L 188.855469 116.191406 L 71.285156 319.828125 L 36.277344 319.828125 L 188.855469 52.703125 L 188.855469 12.230469 L 2.832031 337.472656 L 84.464844 337.472656 L 374.875 174.851562 L 113.660156 286.90625 " fill-opacity="1" fill-rule="nonzero"/></g><g clip-path="url(#9fc093138f)"><path fill="#078c71" d="M 291.425781 232.285156 L 341.429688 319.828125 L 306.425781 319.828125 L 264.566406 247.328125 L 246.90625 257.214844 L 293.246094 337.472656 L 374.875 337.472656 L 309.066406 222.40625 L 291.425781 232.285156 " fill-opacity="1" fill-rule="nonzero"/></g></svg>